<mxfile host="app.diagrams.net" agent="Mozilla/5.0 (Macintosh; Intel Mac OS X 10_15_7) AppleWebKit/537.36 (KHTML, like Gecko) Chrome/136.0.0.0 Safari/537.36" version="26.2.14">
  <diagram name="Page-1" id="lTibWZJzUnfXMaQeShoQ">
    <mxGraphModel dx="1018" dy="655" grid="1" gridSize="10" guides="1" tooltips="1" connect="1" arrows="1" fold="1" page="1" pageScale="1" pageWidth="850" pageHeight="1100" math="0" shadow="0">
      <root>
        <mxCell id="0" />
        <mxCell id="1" parent="0" />
        <mxCell id="tXHT3J5eXbnPrrz6xo0E-17" style="edgeStyle=orthogonalEdgeStyle;rounded=0;orthogonalLoop=1;jettySize=auto;html=1;entryX=0;entryY=0.5;entryDx=0;entryDy=0;exitX=0.5;exitY=0;exitDx=0;exitDy=0;exitPerimeter=0;" edge="1" parent="1" source="tXHT3J5eXbnPrrz6xo0E-1" target="tXHT3J5eXbnPrrz6xo0E-2">
          <mxGeometry relative="1" as="geometry" />
        </mxCell>
        <mxCell id="tXHT3J5eXbnPrrz6xo0E-1" value="Client" style="shape=umlActor;verticalLabelPosition=bottom;verticalAlign=top;html=1;outlineConnect=0;" vertex="1" parent="1">
          <mxGeometry x="80" y="410" width="30" height="60" as="geometry" />
        </mxCell>
        <mxCell id="tXHT3J5eXbnPrrz6xo0E-2" value="Webhook Management Service" style="rounded=1;whiteSpace=wrap;html=1;fillColor=#BDFAFF;" vertex="1" parent="1">
          <mxGeometry x="295" y="320" width="120" height="60" as="geometry" />
        </mxCell>
        <mxCell id="tXHT3J5eXbnPrrz6xo0E-33" style="edgeStyle=orthogonalEdgeStyle;rounded=0;orthogonalLoop=1;jettySize=auto;html=1;entryX=0.75;entryY=0;entryDx=0;entryDy=0;" edge="1" parent="1" source="tXHT3J5eXbnPrrz6xo0E-6" target="tXHT3J5eXbnPrrz6xo0E-8">
          <mxGeometry relative="1" as="geometry" />
        </mxCell>
        <mxCell id="tXHT3J5eXbnPrrz6xo0E-6" value="Subscription" style="shape=cylinder3;whiteSpace=wrap;html=1;boundedLbl=1;backgroundOutline=1;size=15;fillColor=#FFEA83;" vertex="1" parent="1">
          <mxGeometry x="660" y="310" width="70" height="80" as="geometry" />
        </mxCell>
        <mxCell id="tXHT3J5eXbnPrrz6xo0E-22" style="edgeStyle=orthogonalEdgeStyle;rounded=0;orthogonalLoop=1;jettySize=auto;html=1;entryX=1;entryY=0.5;entryDx=0;entryDy=0;exitX=0;exitY=0.5;exitDx=0;exitDy=0;exitPerimeter=0;" edge="1" parent="1" source="tXHT3J5eXbnPrrz6xo0E-7" target="tXHT3J5eXbnPrrz6xo0E-12">
          <mxGeometry relative="1" as="geometry">
            <Array as="points">
              <mxPoint x="660" y="510" />
              <mxPoint x="450" y="510" />
              <mxPoint x="450" y="490" />
            </Array>
          </mxGeometry>
        </mxCell>
        <mxCell id="tXHT3J5eXbnPrrz6xo0E-30" style="edgeStyle=orthogonalEdgeStyle;rounded=0;orthogonalLoop=1;jettySize=auto;html=1;entryX=1;entryY=0.5;entryDx=0;entryDy=0;exitX=0.5;exitY=1;exitDx=0;exitDy=0;exitPerimeter=0;" edge="1" parent="1" source="tXHT3J5eXbnPrrz6xo0E-7" target="tXHT3J5eXbnPrrz6xo0E-13">
          <mxGeometry relative="1" as="geometry" />
        </mxCell>
        <mxCell id="tXHT3J5eXbnPrrz6xo0E-7" value="Events Delivery" style="shape=cylinder3;whiteSpace=wrap;html=1;boundedLbl=1;backgroundOutline=1;size=15;fillColor=#FFEA83;" vertex="1" parent="1">
          <mxGeometry x="660" y="440" width="70" height="80" as="geometry" />
        </mxCell>
        <mxCell id="tXHT3J5eXbnPrrz6xo0E-31" style="edgeStyle=orthogonalEdgeStyle;rounded=0;orthogonalLoop=1;jettySize=auto;html=1;entryX=1;entryY=0.5;entryDx=0;entryDy=0;exitX=0.5;exitY=0;exitDx=0;exitDy=0;" edge="1" parent="1" source="tXHT3J5eXbnPrrz6xo0E-8" target="tXHT3J5eXbnPrrz6xo0E-23">
          <mxGeometry relative="1" as="geometry" />
        </mxCell>
        <mxCell id="tXHT3J5eXbnPrrz6xo0E-8" value="Events Producer Service" style="rounded=1;whiteSpace=wrap;html=1;fillColor=#D7FFE3;" vertex="1" parent="1">
          <mxGeometry x="790" y="450" width="120" height="60" as="geometry" />
        </mxCell>
        <mxCell id="tXHT3J5eXbnPrrz6xo0E-9" value="Dispatcher Service" style="rounded=1;whiteSpace=wrap;html=1;fillColor=#BDFAFF;" vertex="1" parent="1">
          <mxGeometry x="285" y="440" width="120" height="60" as="geometry" />
        </mxCell>
        <mxCell id="tXHT3J5eXbnPrrz6xo0E-32" style="edgeStyle=orthogonalEdgeStyle;rounded=0;orthogonalLoop=1;jettySize=auto;html=1;entryX=1;entryY=0.25;entryDx=0;entryDy=0;" edge="1" parent="1" source="tXHT3J5eXbnPrrz6xo0E-10" target="tXHT3J5eXbnPrrz6xo0E-12">
          <mxGeometry relative="1" as="geometry" />
        </mxCell>
        <mxCell id="tXHT3J5eXbnPrrz6xo0E-10" value="" style="shape=cylinder3;whiteSpace=wrap;html=1;boundedLbl=1;backgroundOutline=1;size=15;rotation=-90;fillColor=#E5E4FF;" vertex="1" parent="1">
          <mxGeometry x="540" y="370" width="30" height="80" as="geometry" />
        </mxCell>
        <mxCell id="tXHT3J5eXbnPrrz6xo0E-26" style="edgeStyle=orthogonalEdgeStyle;rounded=0;orthogonalLoop=1;jettySize=auto;html=1;exitX=0;exitY=0.5;exitDx=0;exitDy=0;" edge="1" parent="1" source="tXHT3J5eXbnPrrz6xo0E-12" target="tXHT3J5eXbnPrrz6xo0E-1">
          <mxGeometry relative="1" as="geometry">
            <mxPoint x="100" y="490" as="targetPoint" />
          </mxGeometry>
        </mxCell>
        <mxCell id="tXHT3J5eXbnPrrz6xo0E-11" value="Dispatcher Service" style="rounded=1;whiteSpace=wrap;html=1;fillColor=#BDFAFF;" vertex="1" parent="1">
          <mxGeometry x="295" y="450" width="120" height="60" as="geometry" />
        </mxCell>
        <mxCell id="tXHT3J5eXbnPrrz6xo0E-12" value="Dispatcher Service Workers" style="rounded=1;whiteSpace=wrap;html=1;fillColor=#BDFAFF;" vertex="1" parent="1">
          <mxGeometry x="305" y="460" width="120" height="60" as="geometry" />
        </mxCell>
        <mxCell id="tXHT3J5eXbnPrrz6xo0E-28" style="edgeStyle=orthogonalEdgeStyle;rounded=0;orthogonalLoop=1;jettySize=auto;html=1;" edge="1" parent="1" source="tXHT3J5eXbnPrrz6xo0E-13" target="tXHT3J5eXbnPrrz6xo0E-1">
          <mxGeometry relative="1" as="geometry" />
        </mxCell>
        <mxCell id="tXHT3J5eXbnPrrz6xo0E-13" value="Retry Service" style="rounded=1;whiteSpace=wrap;html=1;fillColor=#BDFAFF;" vertex="1" parent="1">
          <mxGeometry x="285" y="550" width="120" height="60" as="geometry" />
        </mxCell>
        <mxCell id="tXHT3J5eXbnPrrz6xo0E-18" style="edgeStyle=orthogonalEdgeStyle;rounded=0;orthogonalLoop=1;jettySize=auto;html=1;entryX=0;entryY=0.5;entryDx=0;entryDy=0;entryPerimeter=0;" edge="1" parent="1" source="tXHT3J5eXbnPrrz6xo0E-2" target="tXHT3J5eXbnPrrz6xo0E-6">
          <mxGeometry relative="1" as="geometry" />
        </mxCell>
        <mxCell id="tXHT3J5eXbnPrrz6xo0E-23" value="MQ" style="text;html=1;align=center;verticalAlign=middle;whiteSpace=wrap;rounded=0;" vertex="1" parent="1">
          <mxGeometry x="540" y="395" width="60" height="30" as="geometry" />
        </mxCell>
        <mxCell id="tXHT3J5eXbnPrrz6xo0E-29" style="edgeStyle=orthogonalEdgeStyle;rounded=0;orthogonalLoop=1;jettySize=auto;html=1;entryX=1;entryY=0.5;entryDx=0;entryDy=0;entryPerimeter=0;" edge="1" parent="1" source="tXHT3J5eXbnPrrz6xo0E-8" target="tXHT3J5eXbnPrrz6xo0E-7">
          <mxGeometry relative="1" as="geometry" />
        </mxCell>
      </root>
    </mxGraphModel>
  </diagram>
</mxfile>
